<svg width="1432" height="552" viewBox="0 0 1432 552" fill="none" xmlns="http://www.w3.org/2000/svg">
<path d="M15.7559 366.596H89.4653L121.321 334.127L165.069 410.408L206.394 296.988L258.3 531.987L308.25 15.8301L357.072 385.838L398.397 326.19L437.735 365.64H523.292" stroke="#E93F2D" stroke-width="30" stroke-linecap="round" stroke-linejoin="round"/>
<path d="M595.264 285.422V468H558.228V251.389H594.263L595.264 285.422ZM662.93 250.188L662.729 284.621C659.66 283.954 656.724 283.553 653.921 283.42C651.252 283.153 648.182 283.02 644.712 283.02C636.17 283.02 628.63 284.354 622.09 287.023C615.55 289.693 610.011 293.43 605.474 298.234C600.936 303.039 597.332 308.778 594.663 315.451C592.127 321.991 590.459 329.198 589.658 337.072L579.248 343.078C579.248 329.999 580.516 317.72 583.052 306.242C585.721 294.764 589.792 284.621 595.264 275.812C600.736 266.87 607.676 259.93 616.084 254.992C624.626 249.921 634.769 247.385 646.514 247.385C649.183 247.385 652.253 247.718 655.723 248.386C659.193 248.92 661.595 249.52 662.93 250.188ZM683.35 362.097V357.492C683.35 341.877 685.618 327.396 690.156 314.05C694.694 300.57 701.234 288.892 709.775 279.016C718.317 269.006 728.66 261.265 740.806 255.793C752.951 250.188 766.564 247.385 781.646 247.385C796.86 247.385 810.54 250.188 822.686 255.793C834.964 261.265 845.374 269.006 853.916 279.016C862.591 288.892 869.198 300.57 873.735 314.05C878.273 327.396 880.542 341.877 880.542 357.492V362.097C880.542 377.712 878.273 392.193 873.735 405.539C869.198 418.885 862.591 430.563 853.916 440.573C845.374 450.45 835.031 458.19 822.886 463.796C810.874 469.268 797.261 472.004 782.046 472.004C766.831 472.004 753.151 469.268 741.006 463.796C728.861 458.19 718.451 450.45 709.775 440.573C701.234 430.563 694.694 418.885 690.156 405.539C685.618 392.193 683.35 377.712 683.35 362.097ZM720.386 357.492V362.097C720.386 372.907 721.654 383.117 724.189 392.727C726.725 402.202 730.529 410.611 735.601 417.951C740.806 425.292 747.279 431.097 755.02 435.368C762.76 439.506 771.769 441.574 782.046 441.574C792.189 441.574 801.064 439.506 808.672 435.368C816.413 431.097 822.819 425.292 827.891 417.951C832.962 410.611 836.766 402.202 839.302 392.727C841.971 383.117 843.306 372.907 843.306 362.097V357.492C843.306 346.815 841.971 336.739 839.302 327.263C836.766 317.653 832.896 309.178 827.69 301.838C822.619 294.364 816.213 288.492 808.472 284.221C800.864 279.95 791.922 277.814 781.646 277.814C771.502 277.814 762.56 279.95 754.819 284.221C747.212 288.492 740.806 294.364 735.601 301.838C730.529 309.178 726.725 317.653 724.189 327.263C721.654 336.739 720.386 346.815 720.386 357.492ZM917.178 362.097V357.492C917.178 341.877 919.447 327.396 923.984 314.05C928.522 300.57 935.062 288.892 943.604 279.016C952.145 269.006 962.489 261.265 974.634 255.793C986.779 250.188 1000.39 247.385 1015.47 247.385C1030.69 247.385 1044.37 250.188 1056.51 255.793C1068.79 261.265 1079.2 269.006 1087.74 279.016C1096.42 288.892 1103.03 300.57 1107.56 314.05C1112.1 327.396 1114.37 341.877 1114.37 357.492V362.097C1114.37 377.712 1112.1 392.193 1107.56 405.539C1103.03 418.885 1096.42 430.563 1087.74 440.573C1079.2 450.45 1068.86 458.19 1056.71 463.796C1044.7 469.268 1031.09 472.004 1015.87 472.004C1000.66 472.004 986.979 469.268 974.834 463.796C962.689 458.19 952.279 450.45 943.604 440.573C935.062 430.563 928.522 418.885 923.984 405.539C919.447 392.193 917.178 377.712 917.178 362.097ZM954.214 357.492V362.097C954.214 372.907 955.482 383.117 958.018 392.727C960.553 402.202 964.357 410.611 969.429 417.951C974.634 425.292 981.107 431.097 988.848 435.368C996.589 439.506 1005.6 441.574 1015.87 441.574C1026.02 441.574 1034.89 439.506 1042.5 435.368C1050.24 431.097 1056.65 425.292 1061.72 417.951C1066.79 410.611 1070.59 402.202 1073.13 392.727C1075.8 383.117 1077.13 372.907 1077.13 362.097V357.492C1077.13 346.815 1075.8 336.739 1073.13 327.263C1070.59 317.653 1066.72 309.178 1061.52 301.838C1056.45 294.364 1050.04 288.492 1042.3 284.221C1034.69 279.95 1025.75 277.814 1015.47 277.814C1005.33 277.814 996.388 279.95 988.647 284.221C981.04 288.492 974.634 294.364 969.429 301.838C964.357 309.178 960.553 317.653 958.018 327.263C955.482 336.739 954.214 346.815 954.214 357.492ZM1297.15 551.281V293.029L1300.35 251.389H1334.38V551.281H1297.15ZM1151.61 362.097V357.893C1151.61 341.343 1153.54 326.328 1157.41 312.849C1161.28 299.235 1166.95 287.557 1174.43 277.814C1181.9 268.072 1190.91 260.598 1201.46 255.393C1212.13 250.054 1224.28 247.385 1237.89 247.385C1251.5 247.385 1263.45 249.787 1273.73 254.592C1284.14 259.263 1292.94 266.136 1300.15 275.212C1307.49 284.154 1313.3 294.965 1317.57 307.644C1321.84 320.323 1324.78 334.67 1326.38 350.686V369.104C1324.91 384.986 1322.04 399.266 1317.77 411.945C1313.5 424.624 1307.69 435.435 1300.35 444.377C1293.14 453.319 1284.27 460.192 1273.73 464.997C1263.32 469.668 1251.24 472.004 1237.49 472.004C1224.14 472.004 1212.13 469.268 1201.46 463.796C1190.91 458.324 1181.9 450.65 1174.43 440.773C1167.09 430.897 1161.42 419.286 1157.41 405.939C1153.54 392.46 1151.61 377.845 1151.61 362.097ZM1188.84 357.893V362.097C1188.84 372.907 1189.98 383.117 1192.25 392.727C1194.51 402.202 1197.99 410.611 1202.66 417.951C1207.46 425.292 1213.47 431.097 1220.67 435.368C1228.01 439.506 1236.69 441.574 1246.7 441.574C1258.98 441.574 1269.19 438.905 1277.33 433.566C1285.6 428.228 1292.21 421.221 1297.15 412.546C1302.09 403.737 1305.89 394.328 1308.56 384.318V336.071C1307.09 328.731 1304.76 321.59 1301.55 314.65C1298.48 307.71 1294.48 301.504 1289.54 296.032C1284.6 290.427 1278.6 286.022 1271.52 282.819C1264.58 279.483 1256.44 277.814 1247.1 277.814C1236.96 277.814 1228.21 279.95 1220.87 284.221C1213.53 288.492 1207.46 294.364 1202.66 301.838C1197.99 309.178 1194.51 317.653 1192.25 327.263C1189.98 336.872 1188.84 347.082 1188.84 357.893Z" fill="#E93F2D"/>
</svg>
